<mxfile host="app.diagrams.net" agent="Mozilla/5.0 (Windows NT 10.0; Win64; x64) AppleWebKit/537.36 (KHTML, like Gecko) Chrome/128.0.0.0 Safari/537.36" version="24.7.12">
  <diagram name="1 oldal" id="bQyfeBxAab93VTgYTVPJ">
    <mxGraphModel dx="1289" dy="1513" grid="0" gridSize="10" guides="1" tooltips="1" connect="1" arrows="1" fold="1" page="0" pageScale="1" pageWidth="827" pageHeight="1169" math="0" shadow="0">
      <root>
        <mxCell id="0" />
        <mxCell id="1" parent="0" />
        <mxCell id="695ze-zd_ylcjbMuKqrk-4" value="" style="edgeStyle=none;curved=1;rounded=0;orthogonalLoop=1;jettySize=auto;html=1;fontSize=12;startSize=8;endSize=8;" parent="1" source="695ze-zd_ylcjbMuKqrk-1" target="695ze-zd_ylcjbMuKqrk-3" edge="1">
          <mxGeometry relative="1" as="geometry" />
        </mxCell>
        <mxCell id="695ze-zd_ylcjbMuKqrk-1" value="START" style="ellipse;whiteSpace=wrap;html=1;" parent="1" vertex="1">
          <mxGeometry x="-52" y="-70" width="120" height="80" as="geometry" />
        </mxCell>
        <mxCell id="695ze-zd_ylcjbMuKqrk-10" value="" style="edgeStyle=none;curved=1;rounded=0;orthogonalLoop=1;jettySize=auto;html=1;fontSize=12;startSize=8;endSize=8;" parent="1" source="695ze-zd_ylcjbMuKqrk-3" target="695ze-zd_ylcjbMuKqrk-5" edge="1">
          <mxGeometry relative="1" as="geometry" />
        </mxCell>
        <mxCell id="695ze-zd_ylcjbMuKqrk-3" value="Be: t[]" style="shape=parallelogram;perimeter=parallelogramPerimeter;whiteSpace=wrap;html=1;fixedSize=1;" parent="1" vertex="1">
          <mxGeometry x="114" y="-60" width="120" height="60" as="geometry" />
        </mxCell>
        <mxCell id="695ze-zd_ylcjbMuKqrk-8" value="" style="edgeStyle=none;curved=1;rounded=0;orthogonalLoop=1;jettySize=auto;html=1;fontSize=12;startSize=8;endSize=8;" parent="1" source="695ze-zd_ylcjbMuKqrk-5" target="695ze-zd_ylcjbMuKqrk-6" edge="1">
          <mxGeometry relative="1" as="geometry" />
        </mxCell>
        <mxCell id="695ze-zd_ylcjbMuKqrk-5" value="csere = 0&lt;div&gt;i = 0&lt;/div&gt;&lt;div&gt;j = 0&lt;/div&gt;" style="whiteSpace=wrap;html=1;aspect=fixed;" parent="1" vertex="1">
          <mxGeometry x="305" y="-73" width="80" height="80" as="geometry" />
        </mxCell>
        <mxCell id="695ze-zd_ylcjbMuKqrk-9" value="" style="edgeStyle=none;curved=1;rounded=0;orthogonalLoop=1;jettySize=auto;html=1;fontSize=12;startSize=8;endSize=8;" parent="1" source="695ze-zd_ylcjbMuKqrk-6" target="695ze-zd_ylcjbMuKqrk-7" edge="1">
          <mxGeometry relative="1" as="geometry" />
        </mxCell>
        <mxCell id="695ze-zd_ylcjbMuKqrk-22" value="" style="edgeStyle=none;curved=1;rounded=0;orthogonalLoop=1;jettySize=auto;html=1;fontSize=12;startSize=8;endSize=8;" parent="1" source="695ze-zd_ylcjbMuKqrk-6" target="695ze-zd_ylcjbMuKqrk-20" edge="1">
          <mxGeometry relative="1" as="geometry" />
        </mxCell>
        <mxCell id="695ze-zd_ylcjbMuKqrk-6" value="i&amp;lt;t[] hossz-1" style="rhombus;whiteSpace=wrap;html=1;" parent="1" vertex="1">
          <mxGeometry x="307" y="54" width="80" height="80" as="geometry" />
        </mxCell>
        <mxCell id="695ze-zd_ylcjbMuKqrk-13" value="" style="edgeStyle=none;curved=1;rounded=0;orthogonalLoop=1;jettySize=auto;html=1;fontSize=12;startSize=8;endSize=8;" parent="1" source="695ze-zd_ylcjbMuKqrk-7" target="695ze-zd_ylcjbMuKqrk-12" edge="1">
          <mxGeometry relative="1" as="geometry" />
        </mxCell>
        <mxCell id="YzvaeAyZYkuMHqC048d--2" value="" style="edgeStyle=orthogonalEdgeStyle;rounded=0;orthogonalLoop=1;jettySize=auto;html=1;" edge="1" parent="1" source="695ze-zd_ylcjbMuKqrk-7" target="YzvaeAyZYkuMHqC048d--1">
          <mxGeometry relative="1" as="geometry" />
        </mxCell>
        <mxCell id="695ze-zd_ylcjbMuKqrk-7" value="j&amp;lt;t[] hossz" style="rhombus;whiteSpace=wrap;html=1;" parent="1" vertex="1">
          <mxGeometry x="365" y="173" width="80" height="80" as="geometry" />
        </mxCell>
        <mxCell id="695ze-zd_ylcjbMuKqrk-15" value="" style="edgeStyle=none;curved=1;rounded=0;orthogonalLoop=1;jettySize=auto;html=1;fontSize=12;startSize=8;endSize=8;" parent="1" source="695ze-zd_ylcjbMuKqrk-12" target="695ze-zd_ylcjbMuKqrk-14" edge="1">
          <mxGeometry relative="1" as="geometry" />
        </mxCell>
        <mxCell id="695ze-zd_ylcjbMuKqrk-12" value="t[i]&amp;lt;t[j]" style="rhombus;whiteSpace=wrap;html=1;" parent="1" vertex="1">
          <mxGeometry x="365" y="307" width="80" height="80" as="geometry" />
        </mxCell>
        <mxCell id="Hx2gACWtR5TZaIJDERZR-2" value="" style="edgeStyle=orthogonalEdgeStyle;rounded=0;orthogonalLoop=1;jettySize=auto;html=1;" parent="1" source="695ze-zd_ylcjbMuKqrk-14" target="Hx2gACWtR5TZaIJDERZR-1" edge="1">
          <mxGeometry relative="1" as="geometry" />
        </mxCell>
        <mxCell id="695ze-zd_ylcjbMuKqrk-14" value="csere =t[i]&lt;div&gt;t[i] = t[j]&lt;/div&gt;&lt;div&gt;t[j] = csere&lt;/div&gt;" style="rounded=0;whiteSpace=wrap;html=1;" parent="1" vertex="1">
          <mxGeometry x="108" y="319" width="120" height="60" as="geometry" />
        </mxCell>
        <mxCell id="695ze-zd_ylcjbMuKqrk-16" value="END" style="ellipse;whiteSpace=wrap;html=1;" parent="1" vertex="1">
          <mxGeometry x="-52" y="50" width="120" height="80" as="geometry" />
        </mxCell>
        <mxCell id="695ze-zd_ylcjbMuKqrk-19" style="edgeStyle=none;curved=1;rounded=0;orthogonalLoop=1;jettySize=auto;html=1;exitX=1;exitY=0.5;exitDx=0;exitDy=0;fontSize=12;startSize=8;endSize=8;" parent="1" source="695ze-zd_ylcjbMuKqrk-16" target="695ze-zd_ylcjbMuKqrk-16" edge="1">
          <mxGeometry relative="1" as="geometry" />
        </mxCell>
        <mxCell id="695ze-zd_ylcjbMuKqrk-21" value="" style="edgeStyle=none;curved=1;rounded=0;orthogonalLoop=1;jettySize=auto;html=1;fontSize=12;startSize=8;endSize=8;" parent="1" source="695ze-zd_ylcjbMuKqrk-20" target="695ze-zd_ylcjbMuKqrk-16" edge="1">
          <mxGeometry relative="1" as="geometry" />
        </mxCell>
        <mxCell id="695ze-zd_ylcjbMuKqrk-20" value="Ki: t[]" style="rounded=0;whiteSpace=wrap;html=1;" parent="1" vertex="1">
          <mxGeometry x="111" y="64" width="120" height="60" as="geometry" />
        </mxCell>
        <mxCell id="Hx2gACWtR5TZaIJDERZR-3" style="edgeStyle=orthogonalEdgeStyle;rounded=0;orthogonalLoop=1;jettySize=auto;html=1;" parent="1" source="Hx2gACWtR5TZaIJDERZR-1" target="695ze-zd_ylcjbMuKqrk-6" edge="1">
          <mxGeometry relative="1" as="geometry">
            <mxPoint x="256" y="132" as="targetPoint" />
          </mxGeometry>
        </mxCell>
        <mxCell id="Hx2gACWtR5TZaIJDERZR-1" value="j++" style="rounded=0;whiteSpace=wrap;html=1;" parent="1" vertex="1">
          <mxGeometry x="107" y="190" width="120" height="60" as="geometry" />
        </mxCell>
        <mxCell id="YzvaeAyZYkuMHqC048d--1" value="i++" style="rounded=0;whiteSpace=wrap;html=1;" vertex="1" parent="1">
          <mxGeometry x="572" y="188.5" width="102" height="49" as="geometry" />
        </mxCell>
        <mxCell id="YzvaeAyZYkuMHqC048d--6" value="" style="endArrow=classic;html=1;rounded=0;exitX=0;exitY=0;exitDx=0;exitDy=0;entryX=1;entryY=0.5;entryDx=0;entryDy=0;" edge="1" parent="1" source="YzvaeAyZYkuMHqC048d--1" target="695ze-zd_ylcjbMuKqrk-6">
          <mxGeometry width="50" height="50" relative="1" as="geometry">
            <mxPoint x="345" y="368" as="sourcePoint" />
            <mxPoint x="395" y="318" as="targetPoint" />
          </mxGeometry>
        </mxCell>
      </root>
    </mxGraphModel>
  </diagram>
</mxfile>
